<svg width="92" height="129" viewBox="0 0 92 129" fill="none" xmlns="http://www.w3.org/2000/svg">
<g clip-path="url(#clip0_3_1025)">
<path d="M18.692 0.756009C24.2797 0.686676 29.8675 0.734676 35.4552 0.732009C35.4685 2.48401 35.4951 4.23601 35.4312 5.98801C31.5597 5.96134 27.6909 5.98801 23.8221 6.01201C23.7955 8.55601 23.7449 11.1 23.7689 13.644C27.6537 13.668 31.5411 13.7053 35.4259 13.6893C35.4711 15.1293 35.4552 16.5747 35.4126 18.0173C29.8408 17.98 24.2691 17.996 18.6973 18.0013C18.7106 12.252 18.7213 6.50534 18.692 0.756009Z" fill="black"/>
<path d="M37.4482 0.737355C43.1051 0.726688 48.7619 0.692022 54.4215 0.756022C54.4002 2.41202 54.4162 4.06536 54.4162 5.72136C50.2999 5.70802 46.181 5.72669 42.0647 5.77469C42.07 6.42536 42.07 7.07602 42.0647 7.72669C46.1756 7.79336 50.2839 7.80136 54.3922 7.82536C54.4082 11.22 54.4002 14.612 54.4215 18.004C48.7619 17.9934 43.1024 17.9987 37.4428 18.0254C37.4136 16.6547 37.4109 15.2867 37.4508 13.916C41.3729 13.9267 45.2976 13.932 49.2196 13.9C49.2436 13.0174 49.2542 12.132 49.2515 11.2494C45.3109 11.2494 41.3675 11.2627 37.4269 11.236C37.4269 7.73735 37.4269 4.23602 37.4482 0.737355Z" fill="black"/>
<path d="M56.316 0.766663C61.9623 0.766663 67.6112 0.766663 73.2574 0.766663C73.2814 2.43066 73.3053 4.09466 73.2521 5.756C69.1172 5.75333 64.9823 5.77733 60.8474 5.78533C60.858 6.46533 60.874 7.14533 60.9086 7.82533C65.0195 7.80666 69.1305 7.85733 73.2388 7.9C73.2761 11.2787 73.3027 14.6573 73.2548 18.036C67.5952 18.02 61.9356 18.02 56.2761 18.0467C56.2415 16.6813 56.2308 15.3107 56.2894 13.9453C60.2034 13.9747 64.1202 13.9693 68.0369 13.932C68.0475 13.0467 68.0662 12.1613 68.0582 11.2787C64.1282 11.316 60.1955 11.2947 56.2628 11.2813C56.2628 7.77733 56.2894 4.27066 56.316 0.766663Z" fill="black"/>
<path d="M0.5 25.156C30.812 25.1533 61.1214 25.1507 91.4335 25.156C89.7652 44.0493 88.1234 62.9427 86.3859 81.8307C85.3535 93.9027 84.2892 105.975 83.1663 118.039C76.6979 119.756 70.2933 121.713 63.8275 123.439C57.8885 125.185 51.9017 126.767 45.9601 128.5H45.7845C40.1302 126.815 34.4201 125.332 28.7659 123.647C22.0925 121.844 15.4778 119.833 8.80176 118.039C7.93167 108.996 7.14673 99.948 6.37243 90.9C4.91164 74.1827 3.32313 57.476 1.91822 40.756C1.43129 35.724 1.08272 30.676 0.5 25.6547V25.156ZM46.1091 32.6093C46.0452 36.2387 46.157 39.8707 46.0452 43.4973C35.6468 43.46 25.2456 43.4893 14.8471 43.5C15.0254 47.0227 15.4964 50.5213 15.9806 54.0147C25.6554 54.3747 35.3434 54.0013 45.0182 54.292C36.5541 58.0973 27.9863 61.6813 19.4849 65.4067C18.7559 65.732 17.9763 65.9773 17.3244 66.452C17.3962 70.3213 18.0188 74.1693 18.2929 78.0307C23.4496 78.012 28.6036 77.9293 33.7602 77.9213C37.8925 77.9 42.0274 77.9827 46.1597 77.892C45.9628 84.2547 46.2209 90.6253 46.0266 96.988C43.2461 96.5747 40.5001 95.9533 37.7302 95.46C35.5456 94.9827 33.3079 94.7347 31.1553 94.108C30.8493 91.0547 30.6364 87.9907 30.365 84.9347C29.7424 84.7427 29.0825 84.7613 28.4386 84.7507C25.3148 84.7693 22.1883 84.74 19.0619 84.788C19.3679 90.6627 19.8947 96.5293 20.7914 102.348C23.8726 103.153 26.9592 103.943 30.0351 104.783C34.7474 106.068 39.5182 107.137 44.2385 108.401C44.8 108.521 45.3667 108.729 45.9494 108.681C46.2634 112.545 46.0213 116.433 46.0798 120.308C47.1681 120.132 48.2378 119.863 49.2888 119.537C58.2238 117.105 67.1482 114.628 76.0779 112.172C76.5223 108.652 76.7298 105.108 77.081 101.58C78.0097 90.8547 78.9463 80.1293 79.9201 69.4067C81.0616 57.14 82.0488 44.86 83.1982 32.5933C70.8334 32.604 58.4713 32.5693 46.1091 32.6093Z" fill="#0170BA"/>
<path d="M46.1091 32.6093C58.4713 32.5693 70.8334 32.604 83.1983 32.5933C82.0488 44.86 81.0616 57.14 79.9201 69.4067C78.9463 80.1293 78.0097 90.8547 77.081 101.58C76.7298 105.108 76.5223 108.652 76.0779 112.172C67.1482 114.628 58.2238 117.105 49.2888 119.537C48.2378 119.863 47.1681 120.132 46.0798 120.308C46.0213 116.433 46.2634 112.545 45.9495 108.681C46.0293 108.665 46.1916 108.633 46.2714 108.617C54.5812 106.527 62.835 104.225 71.1261 102.06C72.1745 90.2733 73.3373 78.492 74.0743 66.6813C67.0231 66.7187 59.9693 66.6973 52.9181 66.7267C51.8911 66.732 50.864 66.7267 49.8422 66.652C53.6366 64.6947 57.6278 63.1427 61.5232 61.396C65.2617 59.6973 69.0454 58.1053 72.7971 56.4387C73.5209 56.1053 74.2925 55.828 74.9284 55.332C75.1786 54.412 75.1653 53.4493 75.2637 52.508C75.4792 49.5213 75.8624 46.5507 76.0061 43.5613C66.02 43.4813 56.034 43.5507 46.0453 43.4973C46.157 39.8707 46.0453 36.2387 46.1091 32.6093Z" fill="#29A9DF"/>
<path d="M46.1597 77.892C50.9811 77.8093 55.8051 77.94 60.6292 77.908C60.3604 82.8493 59.9507 87.7827 59.6952 92.724C56.7391 93.692 53.7377 94.5107 50.7575 95.4067C49.169 95.892 47.538 96.276 46.0266 96.988C46.2209 90.6253 45.9628 84.2547 46.1597 77.892Z" fill="#29A9DF"/>
<path d="M14.8471 43.5C25.2456 43.4893 35.6467 43.46 46.0452 43.4973C46.1809 54.964 46.0106 66.4307 46.1596 77.892C42.0274 77.9827 37.8925 77.9 33.7602 77.9213C28.6035 77.9293 23.4495 78.012 18.2929 78.0307C18.0188 74.1693 17.3962 70.3213 17.3243 66.452C17.9762 65.9773 18.7558 65.732 19.4849 65.4067C27.9862 61.6813 36.5541 58.0973 45.0181 54.292C35.3434 54.0013 25.6554 54.3747 15.9806 54.0147C15.4963 50.5213 15.0254 47.0227 14.8471 43.5Z" fill="#CFCFCF"/>
<path d="M19.0618 84.788C22.1883 84.74 25.3148 84.7693 28.4386 84.7507C29.0825 84.7613 29.7424 84.7427 30.365 84.9347C30.6364 87.9907 30.8493 91.0547 31.1552 94.108C33.3079 94.7347 35.5456 94.9827 37.7301 95.46C40.5 95.9533 43.246 96.5747 46.0266 96.988C46.2926 100.86 45.827 104.759 46.2714 108.617C46.1915 108.633 46.0292 108.665 45.9494 108.681C45.3667 108.729 44.7999 108.521 44.2385 108.401C39.5182 107.137 34.7474 106.068 30.035 104.783C26.9591 103.943 23.8726 103.153 20.7914 102.348C19.8947 96.5293 19.3678 90.6627 19.0618 84.788Z" fill="#CFCFCF"/>
<path d="M46.0452 43.4973C56.0339 43.5507 66.02 43.4813 76.0061 43.5613C75.8624 46.5507 75.4792 49.5213 75.2637 52.508C75.1652 53.4493 75.1785 54.412 74.9284 55.332C74.2925 55.828 73.5208 56.1053 72.7971 56.4387C69.0454 58.1053 65.2617 59.6973 61.5232 61.396C57.6278 63.1427 53.6366 64.6947 49.8422 66.652C50.864 66.7267 51.8911 66.732 52.9181 66.7267C59.9693 66.6973 67.0231 66.7187 74.0743 66.6813C73.3373 78.492 72.1745 90.2733 71.1261 102.06C62.835 104.225 54.5811 106.527 46.2714 108.617C45.827 104.759 46.2927 100.86 46.0266 96.988C47.538 96.276 49.169 95.892 50.7575 95.4067C53.7377 94.5107 56.7391 93.692 59.6952 92.724C59.9507 87.7827 60.3604 82.8493 60.6292 77.908C55.8051 77.94 50.9811 77.8093 46.1597 77.892C46.0106 66.4307 46.1809 54.964 46.0452 43.4973Z" fill="white"/>
</g>
<defs>
<clipPath id="clip0_3_1025">
<rect width="91" height="128" fill="white" transform="translate(0.5 0.5)"/>
</clipPath>
</defs>
</svg>
