<svg width="98" height="97" viewBox="0 0 98 97" fill="none" xmlns="http://www.w3.org/2000/svg">
<path d="M93.21 44.408L53.091 4.29099C50.781 1.97999 47.034 1.97999 44.722 4.29099L36.392 12.623L46.959 23.19C49.415 22.36 52.231 22.917 54.188 24.875C56.157 26.845 56.709 29.685 55.858 32.15L66.044 42.335C68.509 41.485 71.351 42.035 73.319 44.006C76.069 46.756 76.069 51.212 73.319 53.964C70.567 56.715 66.111 56.715 63.358 53.964C61.29 51.894 60.778 48.854 61.827 46.306L52.327 36.807V61.804C52.997 62.136 53.63 62.578 54.188 63.136C56.938 65.886 56.938 70.342 54.188 73.095C51.438 75.844 46.979 75.844 44.231 73.095C41.481 70.341 41.481 65.885 44.231 63.136C44.911 62.457 45.698 61.943 46.538 61.599V36.369C45.698 36.025 44.913 35.516 44.231 34.832C42.148 32.75 41.647 29.692 42.715 27.134L32.298 16.715L4.788 44.222C2.477 46.535 2.477 50.282 4.788 52.593L44.909 92.711C47.219 95.022 50.965 95.022 53.278 92.711L93.21 52.779C95.521 50.468 95.521 46.719 93.21 44.408Z" fill="#F05133"/>
</svg>
