<svg width="128" height="127" viewBox="0 0 128 127" fill="none" xmlns="http://www.w3.org/2000/svg">
<g clip-path="url(#clip0_3_995)">
<path d="M27.3883 0H33.0934V5.65547H38.3519V0H44.057V17.1152H38.3519V11.4102H33.143V17.1152H27.3883M51.5977 5.70508H46.5623V0H62.3629V5.70508H57.3027V17.1152H51.5977M64.8682 0H70.8461L74.5172 6.02754L78.1883 0H84.1662V17.1152H78.4611V8.63203L74.4676 14.7836L70.474 8.63203V17.1152H64.8682M86.9939 0H92.699V11.4598H100.785V17.1152H86.9939" fill="black"/>
<path d="M27.1898 116.83L19.0043 24.9535H108.996L100.81 116.78L63.9256 127" fill="#E44D26"/>
<path d="M64 119.187V32.4941H100.785L93.7656 110.877" fill="#F16529"/>
<path d="M35.7227 43.7307H64V54.992H48.0754L49.1172 66.5262H64V77.7627H38.7984M39.2945 83.4181H50.6055L51.3992 92.4223L64 95.7957V107.553L40.882 101.104" fill="#EBEBEB"/>
<path d="M92.1781 43.7307H63.9504V54.992H91.1363M90.1193 66.5262H63.9504V77.7875H77.841L76.5264 92.4223L63.9504 95.7957V107.503L87.0187 101.104" fill="white"/>
</g>
<defs>
<clipPath id="clip0_3_995">
<rect width="127" height="127" fill="white" transform="translate(0.5)"/>
</clipPath>
</defs>
</svg>
