<svg width="104" height="115" viewBox="0 0 104 115" fill="none" xmlns="http://www.w3.org/2000/svg">
<g clip-path="url(#clip0_3_1011)">
<path d="M97.489 56.5668C97.489 50.662 92.7026 45.8753 86.7981 45.8753C86.4183 45.8753 86.0437 45.8956 85.6745 45.9342L100.358 2.62341H37.9567L52.6199 45.8968C52.4035 45.8831 52.1868 45.8759 51.9699 45.8753C46.0659 45.8753 41.2795 50.662 41.2795 56.5668C41.2795 61.3397 44.4072 65.3805 48.7244 66.7553C46.4441 70.7051 43.5752 74.2624 40.3179 77.3355C35.8885 81.5144 30.8193 84.6829 25.337 86.6355C18.8094 83.2821 15.7267 75.8237 18.5079 69.2848C18.8224 68.5466 19.1429 67.7978 19.4496 67.0527C24.1784 65.9488 27.7022 61.709 27.7022 56.6436C27.7022 50.7388 22.9157 45.9521 17.0113 45.9521C11.1065 45.9521 6.32003 50.7388 6.32003 56.6436C6.32003 60.2647 8.12175 63.4624 10.8753 65.3967C8.229 71.4222 4.33956 77.7275 3.12772 85.0356C1.67537 93.7944 3.12325 103.092 10.6978 108.342C28.3388 120.569 47.4878 100.762 67.678 95.7827C74.9945 93.9781 83.0269 94.2689 89.4733 90.5349C94.315 87.7308 97.5065 83.0838 98.4124 77.8665C99.307 72.7125 98.0021 67.5808 95.0028 63.4198C96.6121 61.4992 97.4925 59.0725 97.489 56.5668ZM62.6604 56.6046L62.6616 56.5668C62.6616 52.6893 60.5971 49.2937 57.5079 47.4195L69.1787 23.8187L80.8697 47.6698C77.9988 49.5866 76.1069 52.8555 76.1069 56.5668C76.1069 56.6448 76.1109 56.7216 76.113 56.7992L62.6604 56.6046Z" fill="#C63D14"/>
<path d="M100.1 56.567C100.1 50.0727 95.4208 44.6538 89.2576 43.4964L104 0.0125122H34.3143L49.0791 43.5845C43.1303 44.9086 38.6681 50.2251 38.6681 56.567C38.6681 61.3297 41.1848 65.5131 44.9568 67.8638C43.1425 70.5668 40.991 73.1105 38.5255 75.4364C34.6157 79.1253 30.2595 81.9229 25.5633 83.7634C20.8333 80.7919 18.8337 75.1885 20.9105 70.3068L21.073 69.9249L21.3781 69.2066C26.5732 67.395 30.3127 62.4494 30.3127 56.6438C30.3127 49.3085 24.3453 43.3412 17.0105 43.3412C9.67566 43.3412 3.70866 49.3085 3.70866 56.6438C3.70866 60.3462 5.23006 63.6987 7.67894 66.1128C7.22232 67.0809 6.75878 68.0457 6.28834 69.0071C4.04909 73.6065 1.51125 78.8198 0.55128 84.6088C-1.35525 96.1059 1.71966 105.297 9.20969 110.488C13.7548 113.638 18.3702 114.877 23.0149 114.877C31.761 114.877 40.6079 110.483 49.2611 106.184C55.4933 103.089 61.9373 99.8879 68.3028 98.3181C70.6712 97.7339 73.1083 97.3825 75.6884 97.0103C80.8047 96.2721 86.0957 95.5091 90.7822 92.7948C96.2142 89.6482 99.933 84.3699 100.984 78.3136C101.887 73.1145 100.8 67.9077 98.1508 63.4915C99.4279 61.4078 100.102 59.0109 100.1 56.567ZM94.8777 56.567C94.8777 61.0226 91.2531 64.6478 86.7973 64.6478C82.3424 64.6478 78.7174 61.0226 78.7174 56.567C78.7174 52.1114 82.3424 48.4866 86.7973 48.4866C91.2531 48.4866 94.8777 52.1114 94.8777 56.567ZM96.7155 5.23475L83.6973 43.6329C83.1371 43.7669 82.5864 43.9377 82.0487 44.144L69.1884 17.9076L56.2908 43.9888C55.729 43.7943 55.1546 43.6382 54.5716 43.5216L41.598 5.23475H96.7155ZM51.9699 48.4866C56.4253 48.4866 60.0498 52.1114 60.0498 56.567C60.0498 61.0226 56.4253 64.6478 51.9699 64.6478C47.515 64.6478 43.89 61.0226 43.89 56.567C43.89 52.1114 47.515 48.4866 51.9699 48.4866ZM17.0105 48.5634C21.4662 48.5634 25.0908 52.1882 25.0908 56.6438C25.0908 61.0994 21.4662 64.7246 17.0105 64.7246C12.5556 64.7246 8.93059 61.0994 8.93059 56.6438C8.93059 52.1882 12.5556 48.5634 17.0105 48.5634ZM95.8392 77.4202C95.0532 81.9493 92.2557 85.906 88.1648 88.2754C84.3513 90.4843 79.7814 91.1437 74.943 91.8413C72.3511 92.2151 69.6707 92.6018 67.0524 93.2478C60.1291 94.955 53.4231 98.286 46.9381 101.507C33.9605 107.954 22.7524 113.52 12.1847 106.196C4.44356 100.83 4.80106 90.9032 5.70294 85.4632C6.53859 80.4234 8.79816 75.7817 10.9834 71.2928C11.3552 70.5297 11.7238 69.7651 12.0892 68.999C13.191 69.44 14.3474 69.7303 15.5269 69.8619C13.3027 77.2037 16.8009 85.1861 24.143 88.9584L25.1477 89.4747L26.2121 89.0957C32.0166 87.0286 37.3648 83.7109 42.109 79.235C45.1758 76.342 47.8112 73.1409 49.9781 69.7205C50.6374 69.82 51.3032 69.8699 51.9699 69.87C59.3048 69.87 65.2722 63.9027 65.2722 56.567C65.2722 52.6221 63.5444 49.0745 60.8079 46.6361L69.1677 29.7302L77.6124 46.9582C75.0787 49.3821 73.4955 52.7919 73.4955 56.567C73.4955 63.9027 79.4625 69.87 86.7973 69.87C89.5105 69.8724 92.1588 69.0401 94.3828 67.486C95.8778 70.5465 96.4348 73.99 95.8392 77.4202Z" fill="white"/>
</g>
<defs>
<clipPath id="clip0_3_1011">
<rect width="104" height="115" fill="white"/>
</clipPath>
</defs>
</svg>
