<svg width="112" height="99" viewBox="0 0 112 99" fill="none" xmlns="http://www.w3.org/2000/svg">
<path d="M111.581 49.5113C111.581 42.1469 102.359 35.1678 88.2202 30.8398C91.483 16.4282 90.0329 4.96246 83.6432 1.2916C82.1704 0.430533 80.4484 0.0226593 78.5677 0.0226593V5.07576C79.61 5.07576 80.4484 5.2797 81.1508 5.66491C84.2323 7.43236 85.5692 14.1623 84.5269 22.8183C84.2777 24.9483 83.8698 27.1916 83.3713 29.4802C78.9303 28.3925 74.0814 27.5541 68.9832 27.0103C65.9244 22.8183 62.7522 19.0114 59.5574 15.6805C66.944 8.8146 73.8775 5.0531 78.5904 5.0531V0C72.3593 0 64.2023 4.44129 55.9547 12.1456C47.707 4.48661 39.55 0.0906389 33.3189 0.0906389V5.14374C38.0092 5.14374 44.9654 8.88258 52.352 15.7031C49.1798 19.0341 46.0076 22.8183 42.9941 27.0103C37.8733 27.5541 33.0244 28.3925 28.5833 29.5029C28.0622 27.2369 27.677 25.0389 27.4051 22.9316C26.3402 14.2756 27.6544 7.54566 30.7132 5.75555C31.393 5.34768 32.2767 5.1664 33.3189 5.1664V0.113298C31.4156 0.113298 29.6936 0.521172 28.1982 1.38224C21.8311 5.0531 20.4037 16.4962 23.6891 30.8624C9.59562 35.2131 0.418976 42.1696 0.418976 49.5113C0.418976 56.8757 9.64094 63.8549 23.7798 68.1829C20.517 82.5944 21.9671 94.0602 28.3568 97.7311C29.8296 98.5921 31.5516 99 33.4549 99C39.686 99 47.843 94.5587 56.0906 86.8544C64.3383 94.5134 72.4953 98.9094 78.7263 98.9094C80.6296 98.9094 82.3517 98.5015 83.8471 97.6404C90.2142 93.9696 91.6416 82.5264 88.3562 68.1602C102.404 63.8322 111.581 56.8531 111.581 49.5113V49.5113ZM82.0798 34.3973C81.2414 37.3204 80.1991 40.3342 79.0209 43.3479C78.0919 41.5351 77.1176 39.7224 76.0527 37.9096C75.0104 36.0968 73.9001 34.3294 72.7899 32.6072C76.0073 33.0831 79.1115 33.6722 82.0798 34.3973ZM71.7022 58.5299C69.9349 61.5889 68.1222 64.4894 66.2416 67.1859C62.8655 67.4804 59.4441 67.639 56 67.639C52.5786 67.639 49.1572 67.4804 45.8037 67.2085C43.9231 64.512 42.0877 61.6342 40.3204 58.5978C38.5984 55.6294 37.0349 52.6157 35.6074 49.5793C37.0123 46.5429 38.5984 43.5065 40.2977 40.5381C42.0651 37.4791 43.8778 34.5786 45.7584 31.8821C49.1345 31.5875 52.5559 31.4289 56 31.4289C59.4214 31.4289 62.8428 31.5875 66.1963 31.8595C68.0769 34.556 69.9122 37.4337 71.6796 40.4701C73.4016 43.4385 74.9651 46.4523 76.3925 49.4887C74.9651 52.5251 73.4016 55.5614 71.7022 58.5299ZM79.0209 55.5841C80.2445 58.6205 81.2868 61.6569 82.1478 64.6027C79.1795 65.3278 76.0527 65.9396 72.8125 66.4154C73.9228 64.6706 75.033 62.8805 76.0753 61.0451C77.1176 59.2323 78.0919 57.3969 79.0209 55.5841ZM56.0453 79.762C53.9381 77.5866 51.8308 75.162 49.7463 72.5109C51.7855 72.6015 53.8701 72.6695 55.9773 72.6695C58.1072 72.6695 60.2145 72.6242 62.2764 72.5109C60.2371 75.162 58.1299 77.5866 56.0453 79.762ZM39.1875 66.4154C35.97 65.9396 32.8658 65.3504 29.8975 64.6253C30.7359 61.7022 31.7782 58.6885 32.9564 55.6748C33.8854 57.4875 34.8597 59.3003 35.9247 61.1131C36.9896 62.9258 38.0772 64.6933 39.1875 66.4154ZM55.932 19.2607C58.0392 21.436 60.1465 23.8606 62.231 26.5118C60.1918 26.4211 58.1072 26.3532 56 26.3532C53.8701 26.3532 51.7629 26.3985 49.701 26.5118C51.7402 23.8606 53.8474 21.436 55.932 19.2607ZM39.1648 32.6072C38.0546 34.352 36.9443 36.1421 35.902 37.9776C34.8597 39.7903 33.8854 41.6031 32.9564 43.4159C31.7329 40.3795 30.6906 37.3431 29.8296 34.3973C32.7978 33.6949 35.9247 33.0831 39.1648 32.6072V32.6072ZM18.659 60.9771C10.6379 57.5555 5.44914 53.0689 5.44914 49.5113C5.44914 45.9538 10.6379 41.4445 18.659 38.0455C20.6076 37.2071 22.7375 36.4594 24.9353 35.7569C26.2269 40.1982 27.9263 44.8208 30.0335 49.5566C27.9489 54.2699 26.2722 58.8698 25.0033 63.2884C22.7601 62.5859 20.6303 61.8155 18.659 60.9771ZM30.8492 93.3577C27.7676 91.5903 26.4308 84.8604 27.4731 76.2044C27.7223 74.0744 28.1302 71.8311 28.6287 69.5425C33.0697 70.6301 37.9186 71.4685 43.0167 72.0124C46.0756 76.2044 49.2478 80.0112 52.4426 83.3422C45.056 90.208 38.1225 93.9696 33.4096 93.9696C32.39 93.9469 31.5289 93.743 30.8492 93.3577V93.3577ZM84.5949 76.0911C85.6598 84.7471 84.3456 91.477 81.2867 93.2671C80.607 93.675 79.7233 93.8563 78.681 93.8563C73.9907 93.8563 67.0346 90.1174 59.648 83.2969C62.8202 79.9659 65.9923 76.1817 69.0059 71.9897C74.1267 71.4459 78.9756 70.6075 83.4166 69.4971C83.9378 71.7858 84.3456 73.9837 84.5949 76.0911V76.0911ZM93.3183 60.9771C91.3697 61.8155 89.2398 62.5633 87.042 63.2657C85.7504 58.8244 84.0511 54.2019 81.9438 49.466C84.0284 44.7528 85.7051 40.1529 86.974 35.7343C89.2172 36.4367 91.3471 37.2071 93.341 38.0455C101.362 41.4672 106.551 45.9538 106.551 49.5113C106.528 53.0689 101.339 57.5782 93.3183 60.9771V60.9771Z" fill="black"/>
<path d="M55.9773 59.8668C61.6962 59.8668 66.3322 55.2305 66.3322 49.5113C66.3322 43.7922 61.6962 39.1559 55.9773 39.1559C50.2585 39.1559 45.6224 43.7922 45.6224 49.5113C45.6224 55.2305 50.2585 59.8668 55.9773 59.8668Z" fill="black"/>
</svg>
