<svg width="116" height="111" viewBox="0 0 116 111" fill="none" xmlns="http://www.w3.org/2000/svg">
<g clip-path="url(#clip0_3_1021)">
<path d="M80.1829 77.0175C84.4266 76.5767 87.6462 72.9055 87.4997 68.4995C87.3537 64.094 83.6949 60.5693 79.3046 60.5693H79.0122C74.4751 60.7163 70.9631 64.5344 71.1095 69.0869C71.256 71.2899 72.1338 73.1989 73.4509 74.5206C68.4753 84.3604 60.8656 91.5562 49.4509 97.5773C41.6947 101.689 33.646 103.158 25.5974 102.13C19.0119 101.249 13.8899 98.3121 10.6699 93.4653C5.9872 86.2694 5.54832 78.4857 9.49964 70.7025C12.2803 65.1218 16.6701 61.0097 19.4507 58.9537C18.8654 57.0446 17.9872 53.8139 17.5483 51.4644C-3.67145 66.8844 -1.47612 87.7381 4.96298 97.5773C9.79208 104.921 19.5972 109.473 30.4265 109.473C33.3532 109.473 36.2798 109.179 39.2069 108.445C57.9389 104.774 72.1342 93.6123 80.1829 77.0175ZM105.939 58.8072C94.8171 45.7367 78.4269 38.5408 59.6949 38.5408H57.3536C56.0365 35.8974 53.2558 34.1349 50.1827 34.1349H49.8898C45.3536 34.2818 41.8416 38.1 41.9876 42.6529C42.134 47.0584 45.7925 50.5831 50.1827 50.5831H50.4751C53.6947 50.4361 56.4753 48.3801 57.646 45.5898H60.2802C71.4024 45.5898 81.9389 48.8205 91.4515 55.1356C98.7684 59.9819 104.037 66.297 106.963 73.9333C109.451 80.1013 109.305 86.1225 106.671 91.2628C102.573 99.046 95.6953 103.305 86.622 103.305C80.7682 103.305 75.2073 101.542 72.2802 100.221C70.6707 101.689 67.7435 104.039 65.6947 105.508C71.9878 108.445 78.4269 110.06 84.5731 110.06C98.6219 110.06 109.012 102.277 112.964 94.4935C117.207 85.9755 116.915 71.2899 105.939 58.8072ZM31.5972 79.5135C31.7436 83.9195 35.402 87.4437 39.7923 87.4437H40.0852C44.6218 87.2972 48.1338 83.4786 47.9874 78.9262C47.8414 74.5202 44.1825 70.996 39.7923 70.996H39.4998C39.2069 70.996 38.7676 70.996 38.4756 71.1425C32.4754 61.1562 29.9876 50.2892 30.8658 38.5404C31.4507 29.7289 34.3778 22.0922 39.4998 15.7771C43.7436 10.3434 51.9387 7.7 57.5 7.55349C73.012 7.25958 79.5971 26.6447 80.0364 34.4283C81.9389 34.8688 85.1584 35.897 87.3537 36.6313C85.5973 12.8407 70.9631 0.504578 56.9147 0.504578C43.7436 0.504578 31.5972 10.0504 26.7676 24.1487C20.0361 42.9464 24.4263 61.0097 32.6214 75.255C31.8901 76.2828 31.4507 77.8984 31.5972 79.514V79.5135Z" fill="#764ABC"/>
</g>
<defs>
<clipPath id="clip0_3_1021">
<rect width="115" height="110" fill="white" transform="translate(0.5 0.5)"/>
</clipPath>
</defs>
</svg>
