<svg width="120" height="119" viewBox="0 0 120 119" fill="none" xmlns="http://www.w3.org/2000/svg">
<path d="M107.663 95.5471C104.173 94.1179 102.68 92.2213 102.825 89.3914C102.973 86.0883 101.099 83.6689 100.209 82.713C100.747 80.6591 102.318 73.5542 100.211 67.3829C97.9464 60.7774 91.0327 50.6889 83.8989 40.772C80.9785 36.6995 80.8404 32.2726 80.6808 27.1466C80.5278 22.2574 80.3554 16.7155 77.6289 10.5548C74.6644 3.84665 68.7159 0 61.3078 0C56.9009 0 52.3773 1.37729 48.8963 3.77837C41.7679 8.69798 42.7102 19.424 43.3337 26.5216C43.4191 27.4935 43.4995 28.4115 43.5463 29.1954C43.9614 36.1466 43.5838 39.8102 43.0898 40.9238C42.7703 41.6514 41.1971 43.7225 39.5323 45.9152C37.8105 48.1828 35.8585 50.7533 34.2584 53.1485C32.3493 56.0306 30.8081 60.436 29.3177 64.6962C28.2272 67.8137 27.1972 70.7583 26.1944 72.5179C24.2939 75.903 24.7668 79.0594 25.1617 80.5183C24.4422 81.0181 23.4028 82.0021 22.5253 83.8569C21.4648 86.1199 19.3131 87.336 14.8386 88.1964C12.7824 88.617 11.3646 89.4816 10.6233 90.766C9.54446 92.6353 10.132 94.9841 10.6681 96.5892C11.4602 98.949 10.9666 100.443 10.0692 103.154C9.86244 103.78 9.62795 104.489 9.39034 105.27C9.01617 106.503 9.15117 107.625 9.79065 108.603C11.4805 111.186 16.4114 112.097 21.4875 112.696C24.5183 113.056 27.8355 114.268 31.0438 115.441C34.1874 116.59 37.4379 117.778 40.3926 118.139C40.8417 118.195 41.2865 118.224 41.7152 118.224C46.1764 118.224 48.192 115.263 48.8311 114.047C50.4335 113.72 55.9602 112.673 61.6563 112.533C67.3433 112.37 72.8459 113.493 74.4046 113.842C74.8946 114.78 76.1865 116.923 78.2458 118.027C79.3776 118.645 80.9527 119 82.5661 119C82.5665 119 82.5661 119 82.5665 119C84.2894 119 87.5672 118.593 90.1614 115.863C92.749 113.121 99.2141 109.621 103.935 107.065C104.989 106.494 105.974 105.961 106.838 105.479C109.49 104.009 110.937 101.908 110.808 99.7156C110.701 97.8947 109.495 96.2974 107.663 95.5471ZM48.9544 95.0192C48.6243 92.6938 45.6329 90.3875 42.1686 87.7172C39.336 85.5335 36.1253 83.0586 35.2408 80.9627C33.4129 76.6388 34.8538 69.0361 37.3661 65.1211C38.6076 63.1609 39.6216 60.1883 40.6025 57.3135C41.6614 54.2093 42.7566 50.9998 43.9813 49.5948C45.9209 47.4013 47.7133 43.1333 48.0309 39.7697C49.8471 41.5036 52.6645 43.7037 55.2673 43.7037C55.668 43.7037 56.057 43.6514 56.4288 43.5465C58.2095 43.0322 60.8287 41.5188 63.3617 40.0557C65.5454 38.7939 68.2384 37.2379 69.2516 37.0963C70.989 39.591 81.0846 61.9323 82.1162 69.1071C82.9324 74.784 82.0702 79.4769 81.6367 81.315C81.2879 81.2674 80.872 81.2288 80.435 81.2288C77.623 81.2288 76.8786 82.7637 76.6847 83.6802C76.1861 86.0614 76.1334 93.6755 76.1279 95.3864C75.1112 96.6782 69.9692 102.762 62.5868 103.855C59.5798 104.292 56.7718 104.514 54.2411 104.514C52.0781 104.514 50.6977 104.347 50.1245 104.26L46.4148 100.015C47.8775 99.2931 49.3399 97.7691 48.9544 95.0192ZM53.6618 25.0288C53.5459 25.0787 53.4319 25.1322 53.32 25.1891C53.3087 24.9379 53.2825 24.6831 53.2423 24.4275C52.8373 22.0963 51.2915 20.4041 49.5673 20.4041C49.4398 20.4041 49.3114 20.4139 49.1705 20.4354C48.1448 20.6063 47.3403 21.3768 46.8994 22.4693C47.286 20.0721 48.6442 18.2972 50.2556 18.2972C52.1479 18.2972 53.7464 20.8474 53.7464 23.8657C53.7464 24.2461 53.7187 24.6246 53.6618 25.0288ZM68.3656 26.8263C68.5388 26.2746 68.6324 25.6776 68.6324 25.0581C68.6324 22.3214 66.8962 20.1775 64.6797 20.1775C62.5135 20.1775 60.7511 22.3667 60.7511 25.0581C60.7511 25.2414 60.7601 25.4252 60.7772 25.6086C60.6625 25.5645 60.5505 25.5216 60.4413 25.4802C60.192 24.7252 60.0659 23.9375 60.0659 23.1334C60.0659 19.861 62.1572 17.1985 64.7284 17.1985C67.2992 17.1985 69.3909 19.861 69.3909 23.1334C69.3909 24.4947 69.0152 25.7939 68.3656 26.8263ZM66.4697 33.1954C66.4327 33.3608 66.3539 33.4341 65.4822 33.8875C65.0421 34.1166 64.4943 34.4018 63.8088 34.8192L63.3508 35.0966C61.51 36.2125 57.1998 38.8263 56.0297 38.9796C55.2349 39.0865 54.7433 38.7783 53.638 38.0272C53.3886 37.8575 53.1233 37.6772 52.8405 37.4958C50.8479 36.1883 49.5662 34.7482 49.4214 34.1852C50.0711 33.6831 51.6813 32.4263 52.5057 31.6823C54.1791 30.1263 55.8631 29.0807 56.6965 29.0807C56.7406 29.0807 56.7804 29.0838 56.8217 29.0916C57.801 29.2644 60.2166 30.2285 61.9809 30.9324C62.7963 31.2578 63.5006 31.5387 63.9961 31.7166C65.5572 32.2527 66.371 32.9386 66.4697 33.1954ZM80.4951 105.911C81.3757 101.938 82.3901 96.5346 82.2258 93.3489C82.188 92.6251 82.124 91.8374 82.062 91.0758C81.9461 89.6517 81.774 87.535 81.9516 86.9072C81.9867 86.8909 82.0257 86.8768 82.069 86.8647C82.0764 88.686 82.472 92.3189 85.3772 93.5857C86.243 93.9634 87.2325 94.1546 88.3179 94.1546C91.2282 94.1546 94.4572 92.727 95.7798 91.4043C96.5586 90.6255 97.2137 89.6728 97.6725 88.9182C97.7728 89.212 97.8345 89.5959 97.8021 90.0906C97.6292 92.7769 98.9347 96.3407 101.419 97.654L101.781 97.844C102.666 98.3083 105.016 99.5424 105.054 100.128C105.054 100.128 105.034 100.197 104.903 100.318C104.314 100.856 102.242 101.915 100.238 102.938C96.6835 104.753 92.6542 106.81 90.8446 108.714C88.2968 111.395 85.4151 113.196 83.6749 113.196C83.4654 113.196 83.2746 113.169 83.1049 113.116C81.2149 112.526 79.6593 109.799 80.4951 105.911ZM16.0743 95.7769C15.8815 94.8748 15.7294 94.1628 15.8929 93.473C16.0115 92.9619 18.5347 92.4141 19.6123 92.1804C21.1273 91.8514 22.6942 91.5116 23.7188 90.8897C25.1043 90.0504 25.8546 88.5026 26.5163 87.1371C26.9954 86.1495 27.4902 85.1285 28.0789 84.7933C28.1121 84.7738 28.1628 84.7512 28.2596 84.7512C29.3626 84.7512 31.677 87.0699 33.0106 89.1452C33.3489 89.6685 33.9755 90.7168 34.7004 91.9306C36.8686 95.5584 39.8374 100.527 41.3879 102.192C42.7851 103.689 45.0469 106.568 44.4905 109.036C44.0832 110.952 41.9146 112.509 41.4031 112.854C41.2174 112.896 40.9876 112.917 40.7172 112.917C37.7496 112.917 31.8752 110.448 28.7192 109.122L28.2522 108.926C26.4898 108.187 23.6127 107.721 20.8304 107.271C18.6166 106.912 15.585 106.422 15.0825 105.979C14.6751 105.522 15.1476 104.036 15.5643 102.726C15.8644 101.784 16.1742 100.81 16.3439 99.7906C16.5846 98.1643 16.3014 96.8405 16.0743 95.7769Z" fill="black"/>
</svg>
